<svg width="22" height="21" viewBox="0 0 22 21" fill="none" xmlns="http://www.w3.org/2000/svg">
<path d="M8.06 0.929973C6.17 0.919973 4.33 2.73997 5.17 4.99997H2C1.46957 4.99997 0.960859 5.21069 0.585786 5.58576C0.210714 5.96083 0 6.46954 0 6.99997V8.99997C0 9.26519 0.105357 9.51954 0.292893 9.70708C0.48043 9.89462 0.734784 9.99997 1 9.99997H10V6.99997H12V9.99997H21C21.2652 9.99997 21.5196 9.89462 21.7071 9.70708C21.8946 9.51954 22 9.26519 22 8.99997V6.99997C22 6.46954 21.7893 5.96083 21.4142 5.58576C21.0391 5.21069 20.5304 4.99997 20 4.99997H16.83C18 1.72997 13.6 -0.580027 11.57 2.23997L11 2.99997L10.43 2.21997C9.8 1.32997 8.93 0.939973 8.06 0.929973ZM8 2.99997C8.89 2.99997 9.34 4.07997 8.71 4.70997C8.08 5.33997 7 4.88997 7 3.99997C7 3.73476 7.10536 3.4804 7.29289 3.29287C7.48043 3.10533 7.73478 2.99997 8 2.99997ZM14 2.99997C14.89 2.99997 15.34 4.07997 14.71 4.70997C14.08 5.33997 13 4.88997 13 3.99997C13 3.73476 13.1054 3.4804 13.2929 3.29287C13.4804 3.10533 13.7348 2.99997 14 2.99997ZM1 11V19C1 19.5304 1.21071 20.0391 1.58579 20.4142C1.96086 20.7893 2.46957 21 3 21H19C19.5304 21 20.0391 20.7893 20.4142 20.4142C20.7893 20.0391 21 19.5304 21 19V11H12V19H10V11H1Z" fill="#F54F77"/>
</svg>
