<svg width="12" height="12" viewBox="0 0 12 12" fill="none" xmlns="http://www.w3.org/2000/svg">
<path d="M2 9.33333H10L7.5 6L5.5 8.66667L4 6.66667L2 9.33333ZM2 6C3.11111 6 4.05556 5.61111 4.83333 4.83333C5.61111 4.05556 6 3.11111 6 2H4.86667C4.86667 2.8 4.58889 3.47778 4.03333 4.03333C3.47778 4.58889 2.8 4.86667 2 4.86667V6ZM2 3.73333C2.47778 3.73333 2.88056 3.56389 3.20833 3.225C3.53611 2.88611 3.7 2.47778 3.7 2H2V3.73333ZM1.33333 12C0.966667 12 0.652778 11.8694 0.391667 11.6083C0.130556 11.3472 0 11.0333 0 10.6667V1.33333C0 0.966667 0.130556 0.652778 0.391667 0.391667C0.652778 0.130556 0.966667 0 1.33333 0H10.6667C11.0333 0 11.3472 0.130556 11.6083 0.391667C11.8694 0.652778 12 0.966667 12 1.33333V10.6667C12 11.0333 11.8694 11.3472 11.6083 11.6083C11.3472 11.8694 11.0333 12 10.6667 12H1.33333ZM1.33333 10.6667H10.6667V1.33333H1.33333V10.6667Z" fill="#333333"/>
</svg>
