<svg width="12" height="13" viewBox="0 0 12 13" fill="none" xmlns="http://www.w3.org/2000/svg">
<path d="M2.00008 7.33333C2.00008 7.91111 2.11675 8.45833 2.35008 8.975C2.58341 9.49167 2.91675 9.94444 3.35008 10.3333C3.33897 10.2778 3.33341 10.2278 3.33341 10.1833V10.0333C3.33341 9.67778 3.40008 9.34444 3.53341 9.03333C3.66675 8.72222 3.86119 8.43889 4.11675 8.18333L6.00008 6.33333L7.88341 8.18333C8.13897 8.43889 8.33341 8.72222 8.46675 9.03333C8.60008 9.34444 8.66675 9.67778 8.66675 10.0333V10.1833C8.66675 10.2278 8.66119 10.2778 8.65008 10.3333C9.08341 9.94444 9.41675 9.49167 9.65008 8.975C9.88341 8.45833 10.0001 7.91111 10.0001 7.33333C10.0001 6.77778 9.8973 6.25278 9.69175 5.75833C9.48619 5.26389 9.18897 4.82222 8.80008 4.43333C8.57786 4.57778 8.34453 4.68611 8.10008 4.75833C7.85564 4.83056 7.60564 4.86667 7.35008 4.86667C6.66119 4.86667 6.06397 4.63889 5.55841 4.18333C5.05286 3.72778 4.76119 3.16667 4.68341 2.5C4.25008 2.86667 3.86675 3.24722 3.53341 3.64167C3.20008 4.03611 2.91953 4.43611 2.69175 4.84167C2.46397 5.24722 2.29175 5.66111 2.17508 6.08333C2.05841 6.50556 2.00008 6.92222 2.00008 7.33333ZM6.00008 8.2L5.05008 9.13333C4.92786 9.25556 4.83341 9.39444 4.76675 9.55C4.70008 9.70555 4.66675 9.86667 4.66675 10.0333C4.66675 10.3889 4.7973 10.6944 5.05841 10.95C5.31953 11.2056 5.63341 11.3333 6.00008 11.3333C6.36675 11.3333 6.68064 11.2056 6.94175 10.95C7.20286 10.6944 7.33341 10.3889 7.33341 10.0333C7.33341 9.85555 7.30008 9.69167 7.23341 9.54167C7.16675 9.39167 7.0723 9.25556 6.95008 9.13333L6.00008 8.2ZM6.00008 0V2.2C6.00008 2.57778 6.13064 2.89444 6.39175 3.15C6.65286 3.40556 6.9723 3.53333 7.35008 3.53333C7.55008 3.53333 7.73619 3.49167 7.90841 3.40833C8.08064 3.325 8.23341 3.2 8.36675 3.03333L8.66675 2.66667C9.48897 3.13333 10.139 3.78333 10.6167 4.61667C11.0945 5.45 11.3334 6.35556 11.3334 7.33333C11.3334 8.82222 10.8167 10.0833 9.78341 11.1167C8.75008 12.15 7.48897 12.6667 6.00008 12.6667C4.51119 12.6667 3.25008 12.15 2.21675 11.1167C1.18341 10.0833 0.666748 8.82222 0.666748 7.33333C0.666748 5.9 1.1473 4.53889 2.10841 3.25C3.06953 1.96111 4.36675 0.877778 6.00008 0Z" fill="#333333"/>
</svg>
