<svg width="12" height="13" viewBox="0 0 12 13" fill="none" xmlns="http://www.w3.org/2000/svg">
<path d="M12 5.72179V11.4999C12 11.7651 11.8946 12.0195 11.7071 12.207C11.5196 12.3946 11.2652 12.4999 11 12.4999H8.5C8.23478 12.4999 7.98043 12.3946 7.79289 12.207C7.60536 12.0195 7.5 11.7651 7.5 11.4999V8.99991C7.5 8.8673 7.44732 8.74013 7.35355 8.64636C7.25979 8.55259 7.13261 8.49991 7 8.49991H5C4.86739 8.49991 4.74021 8.55259 4.64645 8.64636C4.55268 8.74013 4.5 8.8673 4.5 8.99991V11.4999C4.5 11.7651 4.39464 12.0195 4.20711 12.207C4.01957 12.3946 3.76522 12.4999 3.5 12.4999H1C0.734784 12.4999 0.48043 12.3946 0.292893 12.207C0.105357 12.0195 1.15549e-08 11.7651 1.15549e-08 11.4999V5.72179C-2.10268e-05 5.58339 0.028687 5.44649 0.0843072 5.31976C0.139927 5.19303 0.221249 5.07922 0.323125 4.98554L5.32312 0.268039L5.33 0.261164C5.51409 0.0937469 5.75398 0.000976562 6.00281 0.000976562C6.25164 0.000976562 6.49154 0.0937469 6.67562 0.261164C6.67776 0.263609 6.68005 0.265906 6.6825 0.268039L11.6825 4.98554C11.7834 5.07971 11.8636 5.19374 11.9183 5.32045C11.9729 5.44716 12.0007 5.5838 12 5.72179Z" fill="#333333"/>
</svg>
