<svg width="16" height="11" viewBox="0 0 16 11" fill="none" xmlns="http://www.w3.org/2000/svg">
<path d="M3.29998 5.43339C3.13331 5.52228 2.96386 5.53617 2.79164 5.47506C2.61942 5.41395 2.48886 5.30006 2.39998 5.13339L0.733309 1.80006C0.64442 1.63339 0.630531 1.46395 0.691643 1.29172C0.752754 1.1195 0.866643 0.988946 1.03331 0.900057C1.19998 0.811168 1.36942 0.797279 1.54164 0.858391C1.71386 0.919502 1.84442 1.03339 1.93331 1.20006L3.59998 4.53339C3.68886 4.70006 3.70275 4.8695 3.64164 5.04172C3.58053 5.21395 3.46664 5.3445 3.29998 5.43339ZM5.63331 10.1001C5.46664 10.1889 5.2972 10.2028 5.12498 10.1417C4.95275 10.0806 4.8222 9.96672 4.73331 9.80006L3.39998 7.13339C3.31109 6.96672 3.2972 6.79728 3.35831 6.62506C3.41942 6.45284 3.53331 6.32228 3.69998 6.23339C3.86664 6.1445 4.03609 6.13061 4.20831 6.19172C4.38053 6.25284 4.51109 6.36672 4.59998 6.53339L5.93331 9.20006C6.0222 9.36672 6.03609 9.53617 5.97498 9.70839C5.91387 9.88061 5.79998 10.0112 5.63331 10.1001ZM6.99998 6.76672C6.83331 6.85561 6.66387 6.8695 6.49164 6.80839C6.31942 6.74728 6.18887 6.63339 6.09998 6.46672L3.76664 1.80006C3.67775 1.63339 3.66386 1.46395 3.72498 1.29172C3.78609 1.1195 3.89998 0.988946 4.06664 0.900057C4.23331 0.811168 4.40275 0.797279 4.57498 0.858391C4.7472 0.919502 4.87775 1.03339 4.96664 1.20006L7.29998 5.86672C7.38887 6.03339 7.40275 6.20284 7.34164 6.37506C7.28053 6.54728 7.16664 6.67784 6.99998 6.76672ZM8.43331 3.43339C8.26664 3.52228 8.0972 3.53617 7.92498 3.47506C7.75275 3.41395 7.6222 3.30006 7.53331 3.13339L6.88331 1.80006C6.79442 1.63339 6.78053 1.46395 6.84164 1.29172C6.90275 1.1195 7.01664 0.988946 7.18331 0.900057C7.34998 0.811168 7.51664 0.797279 7.68331 0.858391C7.84998 0.919502 7.97775 1.03339 8.06664 1.20006L8.73331 2.53339C8.8222 2.70006 8.83609 2.8695 8.77498 3.04172C8.71387 3.21395 8.59998 3.3445 8.43331 3.43339ZM8.83331 10.0834C8.66664 10.1723 8.4972 10.1889 8.32498 10.1334C8.15275 10.0778 8.0222 9.96672 7.93331 9.80006L7.26664 8.46672C7.17775 8.30006 7.16387 8.13061 7.22498 7.95839C7.28609 7.78617 7.39998 7.65561 7.56664 7.56672C7.73331 7.47784 7.90275 7.46395 8.07498 7.52506C8.2472 7.58617 8.37775 7.70006 8.46664 7.86672L9.13331 9.20006C9.2222 9.36672 9.23609 9.53339 9.17498 9.70006C9.11387 9.86672 8.99998 9.9945 8.83331 10.0834ZM11.9333 10.0834C11.7666 10.1723 11.5972 10.1889 11.425 10.1334C11.2528 10.0778 11.1222 9.96672 11.0333 9.80006L8.69998 5.13339C8.61109 4.96672 8.5972 4.79728 8.65831 4.62506C8.71942 4.45284 8.83331 4.32228 8.99998 4.23339C9.16664 4.1445 9.33609 4.13061 9.50831 4.19172C9.68053 4.25284 9.81109 4.36672 9.89998 4.53339L12.2333 9.20006C12.3222 9.36672 12.3361 9.53339 12.275 9.70006C12.2139 9.86672 12.1 9.9945 11.9333 10.0834ZM12.9666 6.10006C12.8 6.18895 12.6305 6.20284 12.4583 6.14172C12.2861 6.08061 12.1555 5.96672 12.0666 5.80006L10.0666 1.80006C9.97775 1.63339 9.96387 1.46395 10.025 1.29172C10.0861 1.1195 10.2 0.988946 10.3666 0.900057C10.5333 0.811168 10.7028 0.797279 10.875 0.858391C11.0472 0.919502 11.1778 1.03339 11.2666 1.20006L13.2666 5.20006C13.3555 5.36672 13.3694 5.53617 13.3083 5.70839C13.2472 5.88061 13.1333 6.01117 12.9666 6.10006ZM14.9666 10.1001C14.8 10.1889 14.6305 10.2028 14.4583 10.1417C14.2861 10.0806 14.1555 9.96672 14.0666 9.80006L13.0666 7.80006C12.9778 7.63339 12.9639 7.46395 13.025 7.29172C13.0861 7.1195 13.2 6.98895 13.3666 6.90006C13.5333 6.81117 13.7028 6.79728 13.875 6.85839C14.0472 6.9195 14.1778 7.03339 14.2666 7.20006L15.2666 9.20006C15.3555 9.36672 15.3694 9.53617 15.3083 9.70839C15.2472 9.88061 15.1333 10.0112 14.9666 10.1001Z" fill="#333333"/>
</svg>
