<svg width="12" height="12" viewBox="0 0 12 12" fill="none" xmlns="http://www.w3.org/2000/svg">
<path d="M1.46667 12C1.05556 12 0.708333 11.8583 0.425 11.575C0.141667 11.2917 0 10.9444 0 10.5333V1.4C0 1.07778 0.15 0.852781 0.45 0.725003C0.75 0.597225 1.01111 0.644447 1.23333 0.86667L2.73333 2.36667L1.83333 3.26667L2.3 3.73334L3.2 2.83334L4.93333 4.56667L4.03333 5.46667L4.5 5.93334L5.4 5.03334L7.13333 6.76667L6.23333 7.66667L6.7 8.13334L7.6 7.23334L9.33333 8.96667L8.43333 9.86667L8.9 10.3333L9.8 9.43334L11.1333 10.7667C11.3556 10.9889 11.4028 11.25 11.275 11.55C11.1472 11.85 10.9222 12 10.6 12H1.46667ZM2 10H7.53333L2 4.46667V10Z" fill="#333333"/>
</svg>
