<svg width="12" height="15" viewBox="0 0 12 15" fill="none" xmlns="http://www.w3.org/2000/svg">
<path d="M1.5 14.75V14L2.625 13.25C1.8875 13.25 1.26562 12.9969 0.759375 12.4906C0.253125 11.9844 0 11.3625 0 10.625V3.5C0 2.4625 0.48125 1.70312 1.44375 1.22188C2.40625 0.740625 3.925 0.5 6 0.5C8.15 0.5 9.6875 0.73125 10.6125 1.19375C11.5375 1.65625 12 2.425 12 3.5V10.625C12 11.3625 11.7469 11.9844 11.2406 12.4906C10.7344 12.9969 10.1125 13.25 9.375 13.25L10.5 14V14.75H1.5ZM1.5 6.5H5.25V4.25H1.5V6.5ZM9.375 8H1.5H10.5H9.375ZM6.75 6.5H10.5V4.25H6.75V6.5ZM3.375 11C3.6875 11 3.95313 10.8906 4.17188 10.6719C4.39062 10.4531 4.5 10.1875 4.5 9.875C4.5 9.5625 4.39062 9.29688 4.17188 9.07812C3.95313 8.85938 3.6875 8.75 3.375 8.75C3.0625 8.75 2.79688 8.85938 2.57812 9.07812C2.35938 9.29688 2.25 9.5625 2.25 9.875C2.25 10.1875 2.35938 10.4531 2.57812 10.6719C2.79688 10.8906 3.0625 11 3.375 11ZM8.625 11C8.9375 11 9.20312 10.8906 9.42188 10.6719C9.64062 10.4531 9.75 10.1875 9.75 9.875C9.75 9.5625 9.64062 9.29688 9.42188 9.07812C9.20312 8.85938 8.9375 8.75 8.625 8.75C8.3125 8.75 8.04688 8.85938 7.82813 9.07812C7.60938 9.29688 7.5 9.5625 7.5 9.875C7.5 10.1875 7.60938 10.4531 7.82813 10.6719C8.04688 10.8906 8.3125 11 8.625 11ZM2.625 11.75H9.375C9.7 11.75 9.96875 11.6438 10.1813 11.4313C10.3938 11.2188 10.5 10.95 10.5 10.625V8H1.5V10.625C1.5 10.95 1.60625 11.2188 1.81875 11.4313C2.03125 11.6438 2.3 11.75 2.625 11.75ZM6 2C4.925 2 4.03438 2.0625 3.32813 2.1875C2.62188 2.3125 2.125 2.5 1.8375 2.75H10.2375C10.0125 2.5 9.54688 2.3125 8.84063 2.1875C8.13438 2.0625 7.1875 2 6 2ZM6 2.75H10.2375H1.8375H6Z" fill="#333333"/>
</svg>
